<?xml version="1.0" encoding="UTF-8" standalone="no"?>
<!-- Created with Inkscape (http://www.inkscape.org/) -->

<svg
   version="1.0"
   width="233.73599"
   height="233.73599"
   id="svg2444"
   sodipodi:docname="Metallica_wordmark.svg"
   inkscape:version="1.3.1 (9b9bdc1480, 2023-11-25, custom)"
   xmlns:inkscape="http://www.inkscape.org/namespaces/inkscape"
   xmlns:sodipodi="http://sodipodi.sourceforge.net/DTD/sodipodi-0.dtd"
   xmlns="http://www.w3.org/2000/svg"
   xmlns:svg="http://www.w3.org/2000/svg">
  <sodipodi:namedview
     id="namedview1"
     pagecolor="#ffffff"
     bordercolor="#000000"
     borderopacity="0.25"
     inkscape:showpageshadow="2"
     inkscape:pageopacity="0.0"
     inkscape:pagecheckerboard="0"
     inkscape:deskcolor="#d1d1d1"
     showguides="false"
     inkscape:zoom="2.8284271"
     inkscape:cx="102.17693"
     inkscape:cy="105.71246"
     inkscape:window-width="3370"
     inkscape:window-height="1376"
     inkscape:window-x="70"
     inkscape:window-y="27"
     inkscape:window-maximized="1"
     inkscape:current-layer="svg2444">
    <sodipodi:guide
       position="115.79281,208.70017"
       orientation="0.9120256,-0.41013327"
       id="guide17"
       inkscape:locked="false" />
    <sodipodi:guide
       position="117.84018,208.70017"
       orientation="0.91202563,0.41013322"
       id="guide18"
       inkscape:locked="false" />
    <sodipodi:guide
       position="116.8165,210.97657"
       orientation="0,-1"
       id="guide19"
       inkscape:locked="false" />
    <sodipodi:guide
       position="116.8165,171.13089"
       orientation="0,-1"
       id="guide20"
       inkscape:locked="false" />
    <sodipodi:guide
       position="132.35242,237.88558"
       orientation="0.8660254,-0.50000001"
       id="guide33"
       inkscape:locked="false" />
    <sodipodi:guide
       position="116.8165,210.97657"
       orientation="-0.86602532,-0.50000015"
       id="guide34"
       inkscape:locked="false" />
  </sodipodi:namedview>
  <defs
     id="defs2446" />
  <path
     id="path99"
     style="fill:#ffffff;fill-rule:evenodd;stroke:none;stroke-width:0.892887"
     d="m 115.21094,15.820312 c 0.33592,1.164748 0.1303,2.600379 -0.97656,3.283204 -1.37523,1.555133 -2.47156,3.333157 -3.79124,4.935796 -12.891517,16.869044 -27.555525,32.520278 -44.46443,45.422529 -1.171875,0.89182 -1.688922,2.326772 -2.556066,3.475556 -0.129795,0.379134 -1.213198,1.384195 -0.323035,1.093853 1.551208,-0.311801 3.22482,-0.486371 4.75843,-0.937664 4.969946,-2.786878 9.939941,-5.573666 14.909539,-8.361164 -21.121047,41.023688 -42.407567,81.962018 -63.62081,122.938498 -6.973402,13.458 -13.9468037,26.916 -20.9202055,40.374 -0.5371094,1.86393 -1.0742187,3.72787 -1.6113281,5.5918 1.6987134,-1.18789 3.53221701,-2.32132 5.1695699,-3.62968 23.1075387,-23.44571 46.2150787,-46.89141 69.3226177,-70.33712 0.634765,-1.48372 1.269531,-2.96745 1.904297,-4.45117 -1.599103,0.54951 -3.26003,1.00976 -4.758859,1.63581 -4.567282,3.72986 -9.080611,7.52914 -13.681973,11.21516 -1.734567,1.27233 -3.469133,2.54467 -5.203699,3.817 1.343502,-3.3587 2.592385,-6.75799 4.193899,-10.00602 10.606266,-22.94576 21.209777,-45.89279 31.817819,-68.837731 1.55015,3.413047 3.101314,6.825633 4.652344,10.238281 2.120542,-2.61047 4.242129,-5.220099 6.363281,-7.830078 -2.086184,14.623388 -4.177271,29.246068 -6.265625,43.869138 8.895918,-8.26097 17.791134,-16.52271 26.687504,-24.7832 8.89692,8.26059 17.7929,16.52221 26.68945,24.7832 -2.08899,-14.62177 -4.181,-29.24311 -6.26758,-43.865232 2.12107,2.608741 4.24199,5.217612 6.36328,7.826172 1.55103,-3.412647 3.1022,-6.825234 4.65235,-10.238281 11.15687,24.153891 22.33467,48.299021 33.47215,72.461311 0.84196,2.12357 1.68393,4.24715 2.52589,6.37072 -2.91041,-2.14853 -5.88426,-4.21544 -8.62171,-6.58649 -3.4705,-2.85594 -6.94099,-5.71187 -10.41149,-8.56781 -1.53385,-0.49869 -3.06771,-0.99739 -4.60156,-1.49609 0.52672,1.22087 1.02023,2.40081 1.54364,3.54062 0.35736,1.21972 1.46375,1.92618 2.26973,2.83849 22.59281,22.92311 45.18562,45.84622 67.77842,68.76933 1.60482,1.08659 3.20964,2.17317 4.81446,3.25976 -0.61434,-2.01371 -1.11271,-4.07659 -1.85287,-6.0437 -26.04448,-50.2791 -52.12484,-100.54007 -78.11783,-150.845549 -2.05251,-3.994713 -4.10523,-7.989319 -6.15821,-11.983795 5.0888,2.817495 10.13592,5.709286 15.23828,8.501953 1.61524,0.28125 3.23047,0.5625 4.84571,0.84375 -0.95933,-1.441027 -1.86847,-2.932789 -2.89778,-4.316632 C 150.0417,56.099494 134.5593,39.300279 121.04135,21.195551 c -0.88059,-1.176553 -1.72689,-2.403574 -2.94369,-3.26391 0.1091,-0.708927 0.21789,-1.417901 0.32617,-2.126953 -0.53539,0.413956 -1.07161,0.826834 -1.60742,1.240234 -0.53006,-0.400108 -1.09994,-0.865811 -1.60547,-1.22461 z m 3.42968,11.105469 c 6.13475,13.665421 12.30603,27.316011 18.41795,40.990698 0.75782,2.084481 1.51564,4.168962 2.27346,6.253443 -2.63357,-2.016367 -5.38272,-3.890069 -7.81581,-6.153906 -4.89994,-4.277474 -9.79988,-8.554948 -14.69981,-12.832422 -5.76235,5.010689 -11.48759,10.067182 -17.273104,15.049277 -1.746857,1.311699 -3.493714,2.623399 -5.240572,3.935098 1.162578,-3.106542 2.154354,-6.282426 3.613196,-9.268692 6.30016,-14.010046 12.60033,-28.020086 18.90048,-42.030136 0.60807,1.352213 1.21614,2.704427 1.82421,4.05664 z" />
  <path
     id="path100"
     style="color:#000000;fill:#ffffff;stroke:none;-inkscape-stroke:none"
     d="m 131.95117,53.742188 c -4.67178,2.062071 -9.774,2.822775 -14.82155,3.27986 -0.61674,0.06204 -1.53579,0.02962 -0.57328,0.585117 1.87184,1.636153 3.74369,3.272307 5.61554,4.90846 1.60706,-0.22948 3.20502,-0.522508 4.7871,-0.886719 0.67468,-0.15784 1.64679,-0.399439 2.42906,-0.627628 1.98524,-0.564386 3.93098,-1.272164 5.80923,-2.128231 -0.82032,-1.829427 -1.64063,-3.658854 -2.46094,-5.488281 -0.26172,0.11914 -0.52344,0.238281 -0.78516,0.357422 z" />
  <path
     id="path101"
     style="fill:#ffffff;fill-rule:evenodd;stroke:none;stroke-width:0.892887"
     d="m 115.21094,15.820312 c 0.33592,1.164748 0.1303,2.600379 -0.97656,3.283204 -1.37523,1.555133 -2.47156,3.333157 -3.79124,4.935796 -12.891517,16.869044 -27.555525,32.520278 -44.46443,45.422529 -1.171875,0.89182 -1.688922,2.326772 -2.556066,3.475556 -0.129795,0.379134 -1.213198,1.384195 -0.323035,1.093853 1.551208,-0.311801 3.22482,-0.486371 4.75843,-0.937664 4.969946,-2.786878 9.939941,-5.573666 14.909539,-8.361164 -21.121047,41.023688 -42.407567,81.962018 -63.62081,122.938498 -6.973402,13.458 -13.9468037,26.916 -20.9202055,40.374 -0.5371094,1.86393 -1.0742187,3.72787 -1.6113281,5.5918 1.6987134,-1.18789 3.53221701,-2.32132 5.1695699,-3.62968 23.1075387,-23.44571 46.2150787,-46.89141 69.3226177,-70.33712 0.634765,-1.48372 1.269531,-2.96745 1.904297,-4.45117 -1.599103,0.54951 -3.26003,1.00976 -4.758859,1.63581 -4.567282,3.72986 -9.080611,7.52914 -13.681973,11.21516 -1.734567,1.27233 -3.469133,2.54467 -5.203699,3.817 1.343502,-3.3587 2.592385,-6.75799 4.193899,-10.00602 10.606266,-22.94576 21.209777,-45.89279 31.817819,-68.837731 1.55015,3.413047 3.101314,6.825633 4.652344,10.238281 2.120542,-2.61047 4.242129,-5.220099 6.363281,-7.830078 -2.086184,14.623388 -4.177271,29.246068 -6.265625,43.869138 8.895918,-8.26097 17.791134,-16.52271 26.687504,-24.7832 8.89692,8.26059 17.7929,16.52221 26.68945,24.7832 -2.08899,-14.62177 -4.181,-29.24311 -6.26758,-43.865232 2.12107,2.608741 4.24199,5.217612 6.36328,7.826172 1.55103,-3.412647 3.1022,-6.825234 4.65235,-10.238281 11.15687,24.153891 22.33467,48.299021 33.47215,72.461311 0.84196,2.12357 1.68393,4.24715 2.52589,6.37072 -2.91041,-2.14853 -5.88426,-4.21544 -8.62171,-6.58649 -3.4705,-2.85594 -6.94099,-5.71187 -10.41149,-8.56781 -1.53385,-0.49869 -3.06771,-0.99739 -4.60156,-1.49609 0.52672,1.22087 1.02023,2.40081 1.54364,3.54062 0.35736,1.21972 1.46375,1.92618 2.26973,2.83849 22.59281,22.92311 45.18562,45.84622 67.77842,68.76933 1.60482,1.08659 3.20964,2.17317 4.81446,3.25976 -0.61434,-2.01371 -1.11271,-4.07659 -1.85287,-6.0437 -26.04448,-50.2791 -52.12484,-100.54007 -78.11783,-150.845549 -2.05251,-3.994713 -4.10523,-7.989319 -6.15821,-11.983795 5.0888,2.817495 10.13592,5.709286 15.23828,8.501953 1.61524,0.28125 3.23047,0.5625 4.84571,0.84375 -0.95933,-1.441027 -1.86847,-2.932789 -2.89778,-4.316632 C 150.0417,56.099494 134.5593,39.300279 121.04135,21.195551 c -0.88059,-1.176553 -1.72689,-2.403574 -2.94369,-3.26391 0.1091,-0.708927 0.21789,-1.417901 0.32617,-2.126953 -0.53539,0.413956 -1.07161,0.826834 -1.60742,1.240234 -0.53006,-0.400108 -1.09994,-0.865811 -1.60547,-1.22461 z m 3.42968,11.105469 c 6.13475,13.665421 12.30603,27.316011 18.41795,40.990698 0.75782,2.084481 1.51564,4.168962 2.27346,6.253443 -2.63357,-2.016367 -5.38272,-3.890069 -7.81581,-6.153906 -4.89994,-4.277474 -9.79988,-8.554948 -14.69981,-12.832422 -5.76235,5.010689 -11.48759,10.067182 -17.273104,15.049277 -1.746857,1.311699 -3.493714,2.623399 -5.240572,3.935098 1.162578,-3.106542 2.154354,-6.282426 3.613196,-9.268692 6.30016,-14.010046 12.60033,-28.020086 18.90048,-42.030136 0.60807,1.352213 1.21614,2.704427 1.82421,4.05664 z" />
  <path
     id="path102"
     style="color:#000000;fill:#ffffff;stroke:none;-inkscape-stroke:none"
     d="m 98.400391,58.945312 c 4.210549,1.620367 8.551369,3.139751 13.076169,3.492188 0.96282,-0.662824 1.76183,-1.553611 2.68394,-2.280272 1.14897,-1.003581 2.29795,-2.007162 3.44692,-3.010744 -4.22974,-0.514514 -8.54473,-0.78047 -12.60067,-2.189451 -1.39689,-0.449757 -2.76362,-0.98604 -4.13761,-1.500002 -0.82292,1.829427 -1.645833,3.658854 -2.468749,5.488281 z" />
  <path
     id="path103"
     style="color:#000000;fill:#ffffff;stroke:none;-inkscape-stroke:none"
     d="m 131.95117,53.742188 c -4.67178,2.062071 -9.774,2.822775 -14.82155,3.27986 -0.61674,0.06204 -1.53579,0.02962 -0.57328,0.585117 1.87184,1.636153 3.74369,3.272307 5.61554,4.90846 1.60706,-0.22948 3.20502,-0.522508 4.7871,-0.886719 0.67468,-0.15784 1.64679,-0.399439 2.42906,-0.627628 1.98524,-0.564386 3.93098,-1.272164 5.80923,-2.128231 -0.82032,-1.829427 -1.64063,-3.658854 -2.46094,-5.488281 -0.26172,0.11914 -0.52344,0.238281 -0.78516,0.357422 z" />
  <path
     id="path104"
     style="color:#000000;fill:#ffffff;stroke:none;-inkscape-stroke:none"
     d="m 154.99609,3.4082031 c -0.62833,0.1696232 -1.25649,0.3398928 -1.88476,0.5097657 1.5333,4.633798 2.66081,9.4684372 2.53911,14.3784972 -0.0493,11.033172 -5.0917,21.927342 -13.47614,29.101848 -0.28204,0.423755 -1.43242,0.82863 -0.6527,1.275471 1.30205,1.301447 2.60409,2.602893 3.90613,3.90434 3.06526,-2.740211 5.90918,-5.735834 8.3409,-9.055994 0.75158,-1.00013 1.63519,-1.975567 2.30559,-2.990881 -0.15191,-1.292521 0.85688,-2.261608 1.27719,-3.401234 4.93904,-10.394963 5.65607,-22.714036 1.92013,-33.6034955 -0.22245,-0.4989766 -0.15919,-1.5145709 -0.93929,-1.0051855 -1.11205,0.2956227 -2.2241,0.5912454 -3.33616,0.8868681 z" />
  <path
     id="path105"
     style="color:#000000;fill:#ffffff;stroke:none;-inkscape-stroke:none"
     d="m 98.400391,58.945312 c 4.210549,1.620367 8.551369,3.139751 13.076169,3.492188 0.96282,-0.662824 1.76183,-1.553611 2.68394,-2.280272 1.14897,-1.003581 2.29795,-2.007162 3.44692,-3.010744 -4.22974,-0.514514 -8.54473,-0.78047 -12.60067,-2.189451 -1.39689,-0.449757 -2.76362,-0.98604 -4.13761,-1.500002 -0.82292,1.829427 -1.645833,3.658854 -2.468749,5.488281 z" />
  <path
     id="path106"
     style="color:#000000;fill:#ffffff;stroke:none;-inkscape-stroke:none"
     d="m 74.728516,2.3359375 c -1.523019,4.5765286 -2.589163,9.3452235 -2.710828,14.1447825 -0.41295,11.387415 3.711936,22.877472 11.35874,31.338591 1.430918,1.618512 3.008352,3.126333 4.592322,4.57522 0.697153,0.259671 0.976463,-0.653558 1.43775,-0.995347 0.980814,-1.048462 1.993099,-2.06699 2.99975,-3.09059 C 88.834005,45.11817 85.505791,41.569696 83.16315,37.360193 77.808128,28.106953 76.506242,16.597853 79.767874,6.4041567 80.019266,5.565605 80.273517,4.7279961 80.535156,3.8925781 78.600239,3.374516 76.660288,2.8499012 74.728516,2.3359375 Z" />
  <path
     id="path107"
     style="color:#000000;fill:#ffffff;stroke:none;-inkscape-stroke:none"
     d="m 154.99609,3.4082031 c -0.62833,0.1696232 -1.25649,0.3398928 -1.88476,0.5097657 1.5333,4.633798 2.66081,9.4684372 2.53911,14.3784972 -0.0493,11.033172 -5.0917,21.927342 -13.47614,29.101848 -0.28204,0.423755 -1.43242,0.82863 -0.6527,1.275471 1.30205,1.301447 2.60409,2.602893 3.90613,3.90434 3.06526,-2.740211 5.90918,-5.735834 8.3409,-9.055994 0.75158,-1.00013 1.63519,-1.975567 2.30559,-2.990881 -0.15191,-1.292521 0.85688,-2.261608 1.27719,-3.401234 4.93904,-10.394963 5.65607,-22.714036 1.92013,-33.6034955 -0.22245,-0.4989766 -0.15919,-1.5145709 -0.93929,-1.0051855 -1.11205,0.2956227 -2.2241,0.5912454 -3.33616,0.8868681 z" />
  <path
     id="path108"
     style="color:#000000;fill:#ffffff;stroke:none;-inkscape-stroke:none"
     d="m 128.73828,46.466797 c -5.32818,2.098631 -11.20681,2.911287 -16.8738,1.935028 -2.61427,-0.435503 -5.16825,-1.203996 -7.61643,-2.214325 -0.66043,0.850013 -0.89724,1.950662 -1.40879,2.894079 -0.38132,0.847156 -0.76263,1.694312 -1.14395,2.541468 4.79568,2.003234 9.9514,3.236958 15.16794,3.186137 4.93657,0.0056 9.84175,-1.057191 14.41104,-2.892805 0.5104,0.05019 0.76912,-0.585734 0.39375,-0.936582 -0.73051,-1.601853 -1.46339,-3.20253 -2.18171,-4.809875 -0.24935,0.09896 -0.4987,0.197917 -0.74805,0.296875 z" />
  <path
     id="path109"
     style="color:#000000;fill:#ffffff;stroke:none;-inkscape-stroke:none"
     d="m 74.728516,2.3359375 c -1.523019,4.5765286 -2.589163,9.3452235 -2.710828,14.1447825 -0.41295,11.387415 3.711936,22.877472 11.35874,31.338591 1.430918,1.618512 3.008352,3.126333 4.592322,4.57522 0.697153,0.259671 0.976463,-0.653558 1.43775,-0.995347 0.980814,-1.048462 1.993099,-2.06699 2.99975,-3.09059 C 88.834005,45.11817 85.505791,41.569696 83.16315,37.360193 77.808128,28.106953 76.506242,16.597853 79.767874,6.4041567 80.019266,5.565605 80.273517,4.7279961 80.535156,3.8925781 78.600239,3.374516 76.660288,2.8499012 74.728516,2.3359375 Z" />
  <path
     id="path110"
     style="color:#000000;fill:#ffffff;stroke:none;-inkscape-stroke:none"
     d="m 82.498047,4.5703125 c -2.432648,6.3936955 -3.165055,13.4458985 -1.879492,20.1783025 1.387689,7.568776 5.246829,14.638619 10.834496,19.925867 0.761337,0.701559 1.510662,1.48886 2.324293,2.091143 0.580742,-0.286088 0.846012,-0.976326 1.351103,-1.384007 0.908071,-0.992176 1.818154,-1.982487 2.721162,-2.979274 C 94.853568,39.763078 92.022906,36.851293 90.077962,33.331186 85.679207,25.718985 84.763547,16.191255 87.69828,7.8955823 87.879275,7.3698659 88.053037,6.841823 88.240234,6.3183594 86.326918,5.7373977 84.407654,5.1426413 82.498047,4.5703125 Z" />
  <path
     id="path111"
     style="color:#000000;fill:#ffffff;stroke:none;-inkscape-stroke:none"
     d="m 128.73828,46.466797 c -5.32818,2.098631 -11.20681,2.911287 -16.8738,1.935028 -2.61427,-0.435503 -5.16825,-1.203996 -7.61643,-2.214325 -0.66043,0.850013 -0.89724,1.950662 -1.40879,2.894079 -0.38132,0.847156 -0.76263,1.694312 -1.14395,2.541468 4.79568,2.003234 9.9514,3.236958 15.16794,3.186137 4.93657,0.0056 9.84175,-1.057191 14.41104,-2.892805 0.5104,0.05019 0.76912,-0.585734 0.39375,-0.936582 -0.73051,-1.601853 -1.46339,-3.20253 -2.18171,-4.809875 -0.24935,0.09896 -0.4987,0.197917 -0.74805,0.296875 z" />
  <path
     id="path112"
     style="color:#000000;fill:#ffffff;stroke:none;-inkscape-stroke:none"
     d="m 145.45703,6.3378906 c 1.34494,3.8117634 2.24527,7.8171434 2.18535,11.8773414 -0.0295,8.435864 -3.72846,16.762851 -9.95007,22.457729 -0.58414,0.582734 -1.257,1.097868 -1.83684,1.668836 -0.0264,0.537502 0.67128,0.766643 0.91008,1.196009 1.03127,1.101331 2.06255,2.202661 3.09383,3.303991 1.55281,-1.3978 3.06755,-2.841302 4.46874,-4.392578 0.29578,-0.345722 0.66702,-0.746368 1.01126,-1.170364 6.66609,-8.061731 9.56149,-19.073501 7.8032,-29.378464 -0.0546,-0.328004 -0.19165,-1.06838 -0.29962,-1.546489 -0.42533,-1.9754684 -1.02709,-3.9067189 -1.65741,-5.8246051 -1.90951,0.6028646 -3.81901,1.2057291 -5.72852,1.8085937 z" />
  <path
     id="path113"
     style="color:#000000;fill:#ffffff;stroke:none;-inkscape-stroke:none"
     d="m 82.498047,4.5703125 c -2.432648,6.3936955 -3.165055,13.4458985 -1.879492,20.1783025 1.387689,7.568776 5.246829,14.638619 10.834496,19.925867 0.761337,0.701559 1.510662,1.48886 2.324293,2.091143 0.580742,-0.286088 0.846012,-0.976326 1.351103,-1.384007 0.908071,-0.992176 1.818154,-1.982487 2.721162,-2.979274 C 94.853568,39.763078 92.022906,36.851293 90.077962,33.331186 85.679207,25.718985 84.763547,16.191255 87.69828,7.8955823 87.879275,7.3698659 88.053037,6.841823 88.240234,6.3183594 86.326918,5.7373977 84.407654,5.1426413 82.498047,4.5703125 Z" />
  <path
     id="path114"
     style="color:#000000;fill:#ffffff;stroke:none;-inkscape-stroke:none"
     d="m 125.27148,39.242188 c -3.38953,1.190544 -7.00877,1.844873 -10.60331,1.459605 -2.44871,-0.212992 -4.83016,-0.911804 -7.13106,-1.727184 -0.53496,0.113698 -0.37778,0.846349 -0.69157,1.194217 -0.63406,1.408569 -1.26812,2.817137 -1.90218,4.225705 3.50878,1.299498 7.20844,2.345018 10.93877,2.400139 4.16894,0.164812 8.30695,-0.752492 12.20576,-2.163811 0.54177,-0.02077 0.60828,-0.694924 0.26982,-1.021818 -0.7273,-1.557319 -1.42936,-3.12577 -2.13505,-4.693025 -0.31706,0.108724 -0.63412,0.217448 -0.95118,0.326172 z" />
  <path
     id="path115"
     style="color:#000000;fill:#ffffff;stroke:none;-inkscape-stroke:none"
     d="m 145.45703,6.3378906 c 1.34494,3.8117634 2.24527,7.8171434 2.18535,11.8773414 -0.0295,8.435864 -3.72846,16.762851 -9.95007,22.457729 -0.58414,0.582734 -1.257,1.097868 -1.83684,1.668836 -0.0264,0.537502 0.67128,0.766643 0.91008,1.196009 1.03127,1.101331 2.06255,2.202661 3.09383,3.303991 1.55281,-1.3978 3.06755,-2.841302 4.46874,-4.392578 0.29578,-0.345722 0.66702,-0.746368 1.01126,-1.170364 6.66609,-8.061731 9.56149,-19.073501 7.8032,-29.378464 -0.0546,-0.328004 -0.19165,-1.06838 -0.29962,-1.546489 -0.42533,-1.9754684 -1.02709,-3.9067189 -1.65741,-5.8246051 -1.90951,0.6028646 -3.81901,1.2057291 -5.72852,1.8085937 z" />
  <path
     id="path116"
     style="color:#000000;fill:#ffffff;stroke:none;-inkscape-stroke:none"
     d="m 90.076172,6.9863281 c -1.060307,3.0614879 -1.912273,6.4235859 -2.027344,9.5624999 -0.449228,7.999385 2.609483,16.154926 8.370804,21.75194 0.892246,0.910376 1.830361,1.774447 2.777634,2.626966 1.298824,-1.521484 2.597654,-3.042968 3.896484,-4.564453 -2.90463,-2.55587 -5.609145,-5.483131 -7.141825,-9.085677 C 93.396477,21.626189 93.489224,14.987171 95.666016,9.2324219 95.663629,8.5687625 94.804181,8.7645767 94.406577,8.488406 92.957982,8.0124956 91.503267,7.4603378 90.076172,6.9863281 Z" />
  <path
     id="path117"
     style="color:#000000;fill:#ffffff;stroke:none;-inkscape-stroke:none"
     d="m 125.27148,39.242188 c -3.38953,1.190544 -7.00877,1.844873 -10.60331,1.459605 -2.44871,-0.212992 -4.83016,-0.911804 -7.13106,-1.727184 -0.53496,0.113698 -0.37778,0.846349 -0.69157,1.194217 -0.63406,1.408569 -1.26812,2.817137 -1.90218,4.225705 3.50878,1.299498 7.20844,2.345018 10.93877,2.400139 4.16894,0.164812 8.30695,-0.752492 12.20576,-2.163811 0.54177,-0.02077 0.60828,-0.694924 0.26982,-1.021818 -0.7273,-1.557319 -1.42936,-3.12577 -2.13505,-4.693025 -0.31706,0.108724 -0.63412,0.217448 -0.95118,0.326172 z" />
  <path
     id="path118"
     style="color:#000000;fill:#ffffff;stroke:none;-inkscape-stroke:none"
     d="m 139.8418,8.2792969 c -0.63698,0.2333326 -1.27481,0.4646949 -1.91211,0.6972656 1.20103,3.5578975 2.05485,7.3237125 1.62884,11.0980755 -0.55502,6.296316 -3.93445,12.198959 -8.85541,16.114815 -0.31736,0.609242 0.52768,0.885456 0.7664,1.332893 1.01198,1.116076 1.99656,2.256494 2.99142,3.38781 3.04595,-2.652685 5.86631,-5.652283 7.74019,-9.264135 3.82088,-7.028322 4.50592,-15.670469 1.83504,-23.2128507 -0.28122,-0.4041499 -0.15997,-1.6189176 -0.74988,-1.4013279 -1.14817,0.4158181 -2.29633,0.8316363 -3.44449,1.2474545 z" />
  <path
     id="path119"
     style="color:#000000;fill:#ffffff;stroke:none;-inkscape-stroke:none"
     d="m 90.076172,6.9863281 c -1.060307,3.0614879 -1.912273,6.4235859 -2.027344,9.5624999 -0.449228,7.999385 2.609483,16.154926 8.370804,21.75194 0.892246,0.910376 1.830361,1.774447 2.777634,2.626966 1.298824,-1.521484 2.597654,-3.042968 3.896484,-4.564453 -2.90463,-2.55587 -5.609145,-5.483131 -7.141825,-9.085677 C 93.396477,21.626189 93.489224,14.987171 95.666016,9.2324219 95.663629,8.5687625 94.804181,8.7645767 94.406577,8.488406 92.957982,8.0124956 91.503267,7.4603378 90.076172,6.9863281 Z" />
  <path
     id="path120"
     style="color:#000000;fill:#ffffff;stroke:none;-inkscape-stroke:none"
     d="m 122.95117,31.638672 c -3.33923,1.164662 -7.0496,1.636117 -10.4693,0.518398 -0.60271,-0.16553 -1.20264,-0.341603 -1.80218,-0.518398 -0.82292,1.832682 -1.64584,3.665364 -2.46875,5.498047 2.9577,0.946033 6.02145,1.81102 9.1582,1.667969 1.45387,-0.02616 3.12479,-0.284789 4.61604,-0.66005 1.12374,-0.286171 2.26732,-0.604901 3.33318,-1.029404 0.0494,-0.61627 -0.50037,-1.132605 -0.66791,-1.71619 -0.58427,-1.243496 -1.1315,-2.519386 -1.69928,-3.760372 z" />
  <path
     id="path121"
     style="color:#000000;fill:#ffffff;stroke:none;-inkscape-stroke:none"
     d="m 139.8418,8.2792969 c -0.63698,0.2333326 -1.27481,0.4646949 -1.91211,0.6972656 1.20103,3.5578975 2.05485,7.3237125 1.62884,11.0980755 -0.55502,6.296316 -3.93445,12.198959 -8.85541,16.114815 -0.31736,0.609242 0.52768,0.885456 0.7664,1.332893 1.01198,1.116076 1.99656,2.256494 2.99142,3.38781 3.04595,-2.652685 5.86631,-5.652283 7.74019,-9.264135 3.82088,-7.028322 4.50592,-15.670469 1.83504,-23.2128507 -0.28122,-0.4041499 -0.15997,-1.6189176 -0.74988,-1.4013279 -1.14817,0.4158181 -2.29633,0.8316363 -3.44449,1.2474545 z" />
  <path
     id="path122"
     style="color:#000000;fill:#ffffff;stroke:none;-inkscape-stroke:none"
     d="m 135.90039,9.71875 c -1.82506,0.645726 -3.64124,1.32131 -5.46289,1.978516 1.00421,3.062473 1.65818,6.380891 0.83998,9.56795 -0.76871,3.487557 -2.93864,6.531142 -5.64857,8.793378 -0.28242,0.589817 0.54532,0.856478 0.75051,1.312414 0.98438,1.148962 1.93856,2.323267 2.90378,3.488367 0.99849,-0.913184 1.98298,-1.854158 2.83636,-2.781428 4.60826,-4.829305 6.43758,-11.982875 5.07274,-18.476279 -0.2614,-1.249745 -0.65208,-2.479247 -1.06398,-3.676886 -0.0645,-0.065809 -0.0978,-0.2925375 -0.22793,-0.206032 z" />
  <path
     id="path123"
     style="color:#000000;fill:#ffffff;stroke:none;-inkscape-stroke:none"
     d="m 122.95117,31.638672 c -3.33923,1.164662 -7.0496,1.636117 -10.4693,0.518398 -0.60271,-0.16553 -1.20264,-0.341603 -1.80218,-0.518398 -0.82292,1.832682 -1.64584,3.665364 -2.46875,5.498047 2.9577,0.946033 6.02145,1.81102 9.1582,1.667969 1.45387,-0.02616 3.12479,-0.284789 4.61604,-0.66005 1.12374,-0.286171 2.26732,-0.604901 3.33318,-1.029404 0.0494,-0.61627 -0.50037,-1.132605 -0.66791,-1.71619 -0.58427,-1.243496 -1.1315,-2.519386 -1.69928,-3.760372 z" />
  <path
     id="path124"
     style="color:#000000;fill:#ffffff;stroke:none;-inkscape-stroke:none"
     d="m 97.570312,9.5585938 c -0.995481,3.1295912 -1.802964,6.3933402 -1.525712,9.7034602 0.318767,5.534636 2.916859,10.918908 7.16619,14.502712 0.42952,0.220059 0.91521,1.207308 1.3091,0.940727 1.20626,-1.499487 2.41252,-2.998974 3.61878,-4.498462 -2.16259,-1.965275 -4.27071,-4.172056 -5.19857,-7.011314 -1.34388,-3.587092 -1.12818,-7.621839 0.18295,-11.182045 -0.0184,-0.653036 -0.84596,-0.480674 -1.2363,-0.772665 -1.44458,-0.537894 -2.89027,-1.145168 -4.316438,-1.6824132 z" />
  <path
     id="path125"
     style="color:#000000;fill:#ffffff;stroke:none;-inkscape-stroke:none"
     d="m 135.90039,9.71875 c -1.82506,0.645726 -3.64124,1.32131 -5.46289,1.978516 1.00421,3.062473 1.65818,6.380891 0.83998,9.56795 -0.76871,3.487557 -2.93864,6.531142 -5.64857,8.793378 -0.28242,0.589817 0.54532,0.856478 0.75051,1.312414 0.98438,1.148962 1.93856,2.323267 2.90378,3.488367 0.99849,-0.913184 1.98298,-1.854158 2.83636,-2.781428 4.60826,-4.829305 6.43758,-11.982875 5.07274,-18.476279 -0.2614,-1.249745 -0.65208,-2.479247 -1.06398,-3.676886 -0.0645,-0.065809 -0.0978,-0.2925375 -0.22793,-0.206032 z" />
  <path
     id="path126"
     style="color:#000000;fill:#ffffff;stroke:none;-inkscape-stroke:none"
     d="m 97.570312,9.5585938 c -0.995481,3.1295912 -1.802964,6.3933402 -1.525712,9.7034602 0.318767,5.534636 2.916859,10.918908 7.16619,14.502712 0.42952,0.220059 0.91521,1.207308 1.3091,0.940727 1.20626,-1.499487 2.41252,-2.998974 3.61878,-4.498462 -2.16259,-1.965275 -4.27071,-4.172056 -5.19857,-7.011314 -1.34388,-3.587092 -1.12818,-7.621839 0.18295,-11.182045 -0.0184,-0.653036 -0.84596,-0.480674 -1.2363,-0.772665 -1.44458,-0.537894 -2.89027,-1.145168 -4.316438,-1.6824132 z" />
  <g
     id="g98">
    <path
       id="path85"
       style="fill-rule:evenodd;stroke:none;stroke-width:0.892887;fill:#ffffff"
       d="M 115.79281,20.268248 C 101.94504,39.009037 86.28208,56.562214 66.605545,71.50288 l 17.420019,-9.771185 c 1.709878,-0.523231 1.994808,1.04885 1.707298,1.57476 L 73.096416,87.897474 0,228.96841 l 69.683564,-70.70376 -17.42525,14.342 c -2.689374,2.17239 -5.794572,-0.0879 -4.438277,-3.07104 12.525408,-27.09821 25.050031,-54.19639 37.572761,-81.294584 l 5.121896,11.272696 8.883531,-10.932632 -6.490879,45.42912 23.909154,-22.20186 23.90914,22.20186 -6.49087,-45.42912 8.88179,10.932632 5.12364,-11.272696 c 12.52272,27.098194 25.04735,54.196374 37.57276,81.294584 1.35629,2.98312 -1.74891,5.24343 -4.43828,3.07104 L 163.94943,158.26465 233.633,228.96841 160.53657,87.897474 147.90013,63.306455 c -0.28751,-0.52591 -0.003,-2.097991 1.7073,-1.57476 l 17.42001,9.771185 C 147.35092,56.562214 131.68795,39.009037 117.84018,20.268248 L 140.72564,71.159328 138.4289,76.70325 116.8165,57.837521 95.202352,76.70325 92.907346,71.159328 Z" />
    <path
       style="color:#000000;fill:#ffffff;stroke:none;-inkscape-stroke:none"
       d="m 131.7168,56 c -0.1041,0.04139 -0.20418,0.09222 -0.3086,0.132813 -3.42861,1.28865 -7.01414,2.142699 -10.65039,2.490234 0.67221,0.586859 1.3434,1.174887 2.01563,1.761719 3.19522,-0.450597 6.3341,-1.251297 9.34765,-2.384766 l 0.006,-0.002 0.006,-0.002 c 0.13588,-0.05283 0.26696,-0.117748 0.40235,-0.171875 z"
       id="path86" />
    <path
       id="path7"
       style="fill-rule:evenodd;stroke:none;stroke-width:0.892887"
       d="M 115.79281,20.268248 C 101.94504,39.009037 86.28208,56.562214 66.605545,71.50288 l 17.420019,-9.771185 c 1.709878,-0.523231 1.994808,1.04885 1.707298,1.57476 L 73.096416,87.897474 0,228.96841 l 69.683564,-70.70376 -17.42525,14.342 c -2.689374,2.17239 -5.794572,-0.0879 -4.438277,-3.07104 12.525408,-27.09821 25.050031,-54.19639 37.572761,-81.294584 l 5.121896,11.272696 8.883531,-10.932632 -6.490879,45.42912 23.909154,-22.20186 23.90914,22.20186 -6.49087,-45.42912 8.88179,10.932632 5.12364,-11.272696 c 12.52272,27.098194 25.04735,54.196374 37.57276,81.294584 1.35629,2.98312 -1.74891,5.24343 -4.43828,3.07104 L 163.94943,158.26465 233.633,228.96841 160.53657,87.897474 147.90013,63.306455 c -0.28751,-0.52591 -0.003,-2.097991 1.7073,-1.57476 l 17.42001,9.771185 C 147.35092,56.562214 131.68795,39.009037 117.84018,20.268248 L 140.72564,71.159328 138.4289,76.70325 116.8165,57.837521 95.202352,76.70325 92.907346,71.159328 Z" />
    <path
       style="color:#000000;fill:#ffffff;stroke:none;-inkscape-stroke:none"
       d="m 101.92188,55.990234 -0.82227,1.828126 c 2.76431,1.088571 5.63574,1.907961 8.57227,2.398437 0.39517,0.06792 0.79448,0.107731 1.1914,0.164063 0.67085,-0.585625 1.3409,-1.172162 2.01172,-1.757813 -0.96098,-0.09332 -1.9183,-0.213405 -2.86914,-0.376953 l -0.002,-0.002 H 110 c -2.7614,-0.461227 -5.46787,-1.232517 -8.07812,-2.253907 z"
       id="path87" />
    <path
       style="color:#000000;fill:#000000;stroke:none;-inkscape-stroke:none"
       d="m 131.7168,56 c -0.1041,0.04139 -0.20418,0.09222 -0.3086,0.132813 -3.42861,1.28865 -7.01414,2.142699 -10.65039,2.490234 0.67221,0.586859 1.3434,1.174887 2.01563,1.761719 3.19522,-0.450597 6.3341,-1.251297 9.34765,-2.384766 l 0.006,-0.002 0.006,-0.002 c 0.13588,-0.05283 0.26696,-0.117748 0.40235,-0.171875 z"
       id="path44" />
    <path
       style="color:#000000;fill:#ffffff;stroke:none;-inkscape-stroke:none"
       d="m 157.56836,4.7890625 c -0.64535,0.1773323 -1.29563,0.3347492 -1.93945,0.5175784 1.71588,5.2597911 2.38098,10.8638101 1.84961,16.3671871 v 0.002 0.0039 c -0.35497,3.957204 -1.30819,7.859058 -2.77735,11.55664 -1.41435,3.462845 -3.272,6.740501 -5.55664,9.691406 l -0.002,0.002 c -1.5201,1.970375 -3.23021,3.794301 -5.08399,5.455078 0.46488,0.479209 0.94716,0.940783 1.41602,1.416015 1.91366,-1.723412 3.67982,-3.610601 5.25195,-5.648437 h -0.002 c 2.40432,-3.105484 4.35237,-6.544688 5.83203,-10.169922 l 0.002,-0.0039 0.002,-0.0039 c 1.53707,-3.868512 2.53482,-7.953698 2.9082,-12.109376 0.55549,-5.753079 -0.12528,-11.591198 -1.90039,-17.0761715 z"
       id="path88" />
    <path
       style="color:#000000;fill:#000000;stroke:none;-inkscape-stroke:none"
       d="m 101.92188,55.990234 -0.82227,1.828126 c 2.76431,1.088571 5.63574,1.907961 8.57227,2.398437 0.39517,0.06792 0.79448,0.107731 1.1914,0.164063 0.67085,-0.585625 1.3409,-1.172162 2.01172,-1.757813 -0.96098,-0.09332 -1.9183,-0.213405 -2.86914,-0.376953 l -0.002,-0.002 H 110 c -2.7614,-0.461227 -5.46787,-1.232517 -8.07812,-2.253907 z"
       id="path43" />
    <path
       style="color:#000000;fill:#ffffff;stroke:none;-inkscape-stroke:none"
       d="m 76.080078,4.7675781 c -0.315429,0.9712888 -0.596338,1.9548548 -0.83789,2.9492188 -0.892252,3.5808141 -1.307338,7.2778241 -1.246094,10.9648441 0.05238,3.927643 0.680587,7.827945 1.78125,11.582031 v 0.0039 l 0.002,0.0039 c 1.206201,3.988425 2.977777,7.808124 5.279297,11.291016 1.999336,3.032272 4.388748,5.811256 7.09375,8.240234 0.46773,-0.474251 0.930773,-0.953428 1.394531,-1.43164 -2.600595,-2.325531 -4.898693,-4.995353 -6.820313,-7.910156 v -0.002 C 80.537157,37.145749 78.84682,33.504182 77.695312,29.699219 l -0.002,-0.0059 v -0.002 C 76.641335,26.100798 76.043704,22.38221 75.994141,18.652344 v -0.002 -0.002 c -0.05841,-3.5162 0.341037,-7.044476 1.191406,-10.4550781 v -0.002 -0.0039 c 0.237469,-0.977556 0.516574,-1.944183 0.830078,-2.90039 C 77.372786,5.1046303 76.724603,4.9445838 76.080078,4.7675781 Z"
       id="path89" />
    <path
       style="color:#000000;fill:#000000;stroke:none;-inkscape-stroke:none"
       d="m 157.56836,4.7890625 c -0.64535,0.1773323 -1.29563,0.3347492 -1.93945,0.5175784 1.71588,5.2597911 2.38098,10.8638101 1.84961,16.3671871 v 0.002 0.0039 c -0.35497,3.957204 -1.30819,7.859058 -2.77735,11.55664 -1.41435,3.462845 -3.272,6.740501 -5.55664,9.691406 l -0.002,0.002 c -1.5201,1.970375 -3.23021,3.794301 -5.08399,5.455078 0.46488,0.479209 0.94716,0.940783 1.41602,1.416015 1.91366,-1.723412 3.67982,-3.610601 5.25195,-5.648437 h -0.002 c 2.40432,-3.105484 4.35237,-6.544688 5.83203,-10.169922 l 0.002,-0.0039 0.002,-0.0039 c 1.53707,-3.868512 2.53482,-7.953698 2.9082,-12.109376 0.55549,-5.753079 -0.12528,-11.591198 -1.90039,-17.0761715 z"
       id="path42" />
    <path
       style="color:#000000;fill:#ffffff;stroke:none;-inkscape-stroke:none"
       d="m 105.20703,48.6875 -0.82031,1.824219 c 0.10216,0.03828 0.20211,0.08188 0.30469,0.119141 7.85078,2.932343 16.73836,2.912153 24.55859,-0.113282 l -0.82227,-1.828125 c -7.32634,2.80175 -15.69247,2.815081 -23.04492,0.06641 l -0.004,-0.002 -0.006,-0.002 c -0.0558,-0.02027 -0.11035,-0.04386 -0.16602,-0.06445 z"
       id="path90" />
    <path
       style="color:#000000;fill:#000000;stroke:none;-inkscape-stroke:none"
       d="m 76.080078,4.7675781 c -0.315429,0.9712888 -0.596338,1.9548548 -0.83789,2.9492188 -0.892252,3.5808141 -1.307338,7.2778241 -1.246094,10.9648441 0.05238,3.927643 0.680587,7.827945 1.78125,11.582031 v 0.0039 l 0.002,0.0039 c 1.206201,3.988425 2.977777,7.808124 5.279297,11.291016 1.999336,3.032272 4.388748,5.811256 7.09375,8.240234 0.46773,-0.474251 0.930773,-0.953428 1.394531,-1.43164 -2.600595,-2.325531 -4.898693,-4.995353 -6.820313,-7.910156 v -0.002 C 80.537157,37.145749 78.84682,33.504182 77.695312,29.699219 l -0.002,-0.0059 v -0.002 C 76.641335,26.100798 76.043704,22.38221 75.994141,18.652344 v -0.002 -0.002 c -0.05841,-3.5162 0.341037,-7.044476 1.191406,-10.4550781 v -0.002 -0.0039 c 0.237469,-0.977556 0.516574,-1.944183 0.830078,-2.90039 C 77.372786,5.1046303 76.724603,4.9445838 76.080078,4.7675781 Z"
       id="path41" />
    <path
       style="color:#000000;fill:#ffffff;stroke:none;-inkscape-stroke:none"
       d="m 83.769531,7.0468749 c -0.04003,0.122959 -0.0864,0.243719 -0.125,0.367188 -2.719036,8.4299191 -2.066269,17.8606451 1.861328,25.8125001 6.34e-4,0.0013 0.0013,0.0026 0.002,0.0039 6.44e-4,0.0013 0.0013,0.0026 0.002,0.0039 1.981831,4.089699 4.787398,7.759245 8.171875,10.777344 0.452632,-0.490229 0.898868,-0.986643 1.347656,-1.480469 -3.2004,-2.850967 -5.855137,-6.319437 -7.722656,-10.175781 l -0.002,-0.0039 -0.002,-0.0039 C 83.610473,24.877057 82.990631,15.948754 85.550781,8.0195319 v -0.0039 l 0.002,-0.0059 c 0.03983,-0.12741 0.08743,-0.25205 0.128907,-0.378906 -0.634067,-0.203157 -1.275962,-0.385923 -1.91211,-0.583985 z"
       id="path91" />
    <path
       style="color:#000000;fill:#000000;stroke:none;-inkscape-stroke:none"
       d="m 105.20703,48.6875 -0.82031,1.824219 c 0.10216,0.03828 0.20211,0.08188 0.30469,0.119141 7.85078,2.932343 16.73836,2.912153 24.55859,-0.113282 l -0.82227,-1.828125 c -7.32634,2.80175 -15.69247,2.815081 -23.04492,0.06641 l -0.004,-0.002 -0.006,-0.002 c -0.0558,-0.02027 -0.11035,-0.04386 -0.16602,-0.06445 z"
       id="path52" />
    <path
       style="color:#000000;fill:#ffffff;stroke:none;-inkscape-stroke:none"
       d="m 149.88477,7.0390629 c -0.63687,0.198053 -1.27299,0.398398 -1.90821,0.601562 2.36043,7.1342911 2.2273,15.1014911 -0.52148,22.0996091 l -0.004,0.0059 -0.002,0.0059 c -1.85094,4.904513 -4.94173,9.324786 -8.86328,12.802735 0.44993,0.494924 0.91727,0.973536 1.37109,1.464843 4.1423,-3.682698 7.39786,-8.356007 9.36133,-13.55664 2.92193,-7.444311 3.06746,-15.856102 0.56641,-23.4238281 z"
       id="path92" />
    <path
       style="color:#000000;fill:#000000;stroke:none;-inkscape-stroke:none"
       d="m 83.769531,7.0468749 c -0.04003,0.122959 -0.0864,0.243719 -0.125,0.367188 -2.719036,8.4299191 -2.066269,17.8606451 1.861328,25.8125001 6.34e-4,0.0013 0.0013,0.0026 0.002,0.0039 6.44e-4,0.0013 0.0013,0.0026 0.002,0.0039 1.981831,4.089699 4.787398,7.759245 8.171875,10.777344 0.452632,-0.490229 0.898868,-0.986643 1.347656,-1.480469 -3.2004,-2.850967 -5.855137,-6.319437 -7.722656,-10.175781 l -0.002,-0.0039 -0.002,-0.0039 C 83.610473,24.877057 82.990631,15.948754 85.550781,8.0195319 v -0.0039 l 0.002,-0.0059 c 0.03983,-0.12741 0.08743,-0.25205 0.128907,-0.378906 -0.634067,-0.203157 -1.275962,-0.385923 -1.91211,-0.583985 z"
       id="path51" />
    <path
       style="color:#000000;fill:#ffffff;stroke:none;-inkscape-stroke:none"
       d="m 125.13867,41.373047 c -3.08607,1.089532 -6.38796,1.581095 -9.65429,1.396484 h -0.004 -0.004 c -0.81385,-0.03856 -1.88455,-0.161278 -2.53125,-0.265625 h -0.008 l -0.008,-0.002 c -1.51557,-0.218231 -3.0008,-0.601106 -4.43946,-1.115234 l -0.82421,1.830078 c 1.60209,0.581927 3.26074,1.015626 4.96093,1.261719 0.002,2.51e-4 0.004,-2.52e-4 0.006,0 0.74074,0.119305 1.82585,0.245371 2.74805,0.289062 3.59192,0.20193 7.20714,-0.346864 10.58203,-1.5625 z"
       id="path93" />
    <path
       style="color:#000000;fill:#000000;stroke:none;-inkscape-stroke:none"
       d="m 149.88477,7.0390629 c -0.63687,0.198053 -1.27299,0.398398 -1.90821,0.601562 2.36043,7.1342911 2.2273,15.1014911 -0.52148,22.0996091 l -0.004,0.0059 -0.002,0.0059 c -1.85094,4.904513 -4.94173,9.324786 -8.86328,12.802735 0.44993,0.494924 0.91727,0.973536 1.37109,1.464843 4.1423,-3.682698 7.39786,-8.356007 9.36133,-13.55664 2.92193,-7.444311 3.06746,-15.856102 0.56641,-23.4238281 z"
       id="path50" />
    <path
       style="color:#000000;fill:#ffffff;stroke:none;-inkscape-stroke:none"
       d="m 91.365234,9.5488279 c -2.380361,7.2477101 -1.646879,15.4929441 2.351563,22.0683601 7.62e-4,0.0013 0.0012,0.0027 0.002,0.0039 1.418232,2.405995 3.224955,4.570989 5.308594,6.423828 0.438317,-0.505061 0.868134,-1.017093 1.302739,-1.525391 -1.923412,-1.712943 -3.592573,-3.710979 -4.896489,-5.925781 l -0.0039,-0.0059 -0.002,-0.0059 C 91.766379,24.563418 91.079002,16.908828 93.253906,10.216797 92.624081,9.9936269 91.995071,9.7667549 91.365234,9.5488279 Z"
       id="path94" />
    <path
       style="color:#000000;fill:#000000;stroke:none;-inkscape-stroke:none"
       d="m 125.13867,41.373047 c -3.08607,1.089532 -6.38796,1.581095 -9.65429,1.396484 h -0.004 -0.004 c -0.81385,-0.03856 -1.88455,-0.161278 -2.53125,-0.265625 h -0.008 l -0.008,-0.002 c -1.51557,-0.218231 -3.0008,-0.601106 -4.43946,-1.115234 l -0.82421,1.830078 c 1.60209,0.581927 3.26074,1.015626 4.96093,1.261719 0.002,2.51e-4 0.004,-2.52e-4 0.006,0 0.74074,0.119305 1.82585,0.245371 2.74805,0.289062 3.59192,0.20193 7.20714,-0.346864 10.58203,-1.5625 z"
       id="path60" />
    <path
       style="color:#000000;fill:#ffffff;stroke:none;-inkscape-stroke:none"
       d="m 142.28125,9.5175779 c -0.62806,0.217269 -1.25779,0.462723 -1.88672,0.6855471 0.83017,2.512139 1.26755,5.153617 1.25391,7.796875 v 0.0059 0.0039 c 0.0377,6.984501 -3.12119,13.917417 -8.35156,18.542968 0.4329,0.50631 0.88169,0.998862 1.31835,1.501954 5.67486,-5.014874 9.07304,-12.458881 9.03321,-20.050782 0.0142,-2.885958 -0.46085,-5.758389 -1.36719,-8.4863281 z"
       id="path95" />
    <path
       style="color:#000000;fill:#000000;stroke:none;-inkscape-stroke:none"
       d="m 91.365234,9.5488279 c -2.380361,7.2477101 -1.646879,15.4929441 2.351563,22.0683601 7.62e-4,0.0013 0.0012,0.0027 0.002,0.0039 1.418232,2.405995 3.224955,4.570989 5.308594,6.423828 0.438317,-0.505061 0.868134,-1.017093 1.302739,-1.525391 -1.923412,-1.712943 -3.592573,-3.710979 -4.896489,-5.925781 l -0.0039,-0.0059 -0.002,-0.0059 C 91.766379,24.563418 91.079002,16.908828 93.253906,10.216797 92.624081,9.9936269 91.995071,9.7667549 91.365234,9.5488279 Z"
       id="path59" />
    <path
       style="color:#000000;fill:#ffffff;stroke:none;-inkscape-stroke:none"
       d="m 111.79102,34.042969 -0.82422,1.835937 c 3.77431,1.231973 7.9224,1.24428 11.70117,0.002 l -0.82617,-1.835984 c -3.24208,1.013311 -6.80501,1.004041 -10.05078,-0.002 z"
       id="path96" />
    <path
       style="color:#000000;fill:#000000;stroke:none;-inkscape-stroke:none"
       d="m 142.28125,9.5175779 c -0.62806,0.217269 -1.25779,0.462723 -1.88672,0.6855471 0.83017,2.512139 1.26755,5.153617 1.25391,7.796875 v 0.0059 0.0039 c 0.0377,6.984501 -3.12119,13.917417 -8.35156,18.542968 0.4329,0.50631 0.88169,0.998862 1.31835,1.501954 5.67486,-5.014874 9.07304,-12.458881 9.03321,-20.050782 0.0142,-2.885958 -0.46085,-5.758389 -1.36719,-8.4863281 z"
       id="path58" />
    <path
       style="color:#000000;fill:#ffffff;stroke:none;-inkscape-stroke:none"
       d="m 134.75977,12.251953 c -0.62866,0.237705 -1.25678,0.443296 -1.88477,0.685547 0.9778,3.145426 1.04045,6.584874 0.0937,9.738281 l -0.002,0.0059 -0.002,0.0078 c -0.83804,2.942918 -2.53111,5.630338 -4.78125,7.703125 0.41963,0.520037 0.85407,1.027756 1.27735,1.544922 2.55782,-2.325935 4.47026,-5.35112 5.42383,-8.695312 1.07395,-3.583243 1.00035,-7.449368 -0.125,-10.990235 z"
       id="path97" />
    <path
       style="color:#000000;fill:#000000;stroke:none;-inkscape-stroke:none"
       d="m 111.79102,34.042969 -0.82422,1.835937 c 3.77431,1.231973 7.9224,1.24428 11.70117,0.002 l -0.82617,-1.835984 c -3.24208,1.013311 -6.80501,1.004041 -10.05078,-0.002 z"
       id="path30" />
    <path
       style="color:#000000;fill:#ffffff;stroke:none;-inkscape-stroke:none"
       d="m 98.886719,12.214844 c -0.11421,0.372762 -0.218161,0.750196 -0.306641,1.132812 -1.60875,6.276916 0.184166,13.314813 4.865232,17.886719 0.23847,0.241495 0.48541,0.473834 0.73633,0.701172 0.42256,-0.516003 0.83491,-1.039745 1.25391,-1.558594 -0.19597,-0.179588 -0.38788,-0.363751 -0.57422,-0.552734 l -0.008,-0.0078 -0.006,-0.0059 C 100.71835,25.781223 99.085799,19.415865 100.5192,13.83591 l 0.004,-0.01172 0.002,-0.01367 c 0.0664,-0.288343 0.14864,-0.570931 0.23242,-0.853516 -0.62685,-0.241768 -1.243134,-0.504774 -1.871091,-0.742187 z"
       id="path98" />
    <path
       style="color:#000000;fill:#000000;stroke:none;-inkscape-stroke:none"
       d="m 134.75977,12.251953 c -0.62866,0.237705 -1.25678,0.443296 -1.88477,0.685547 0.9778,3.145426 1.04045,6.584874 0.0937,9.738281 l -0.002,0.0059 -0.002,0.0078 c -0.83804,2.942918 -2.53111,5.630338 -4.78125,7.703125 0.41963,0.520037 0.85407,1.027756 1.27735,1.544922 2.55782,-2.325935 4.47026,-5.35112 5.42383,-8.695312 1.07395,-3.583243 1.00035,-7.449368 -0.125,-10.990235 z"
       id="path67" />
    <path
       style="color:#000000;fill:#000000;stroke:none;-inkscape-stroke:none"
       d="m 98.886719,12.214844 c -0.11421,0.372762 -0.218161,0.750196 -0.306641,1.132812 -1.60875,6.276916 0.184166,13.314813 4.865232,17.886719 0.23847,0.241495 0.48541,0.473834 0.73633,0.701172 0.42256,-0.516003 0.83491,-1.039745 1.25391,-1.558594 -0.19597,-0.179588 -0.38788,-0.363751 -0.57422,-0.552734 l -0.008,-0.0078 -0.006,-0.0059 C 100.71835,25.781223 99.085799,19.415865 100.5192,13.83591 l 0.004,-0.01172 0.002,-0.01367 c 0.0664,-0.288343 0.14864,-0.570931 0.23242,-0.853516 -0.62685,-0.241768 -1.243134,-0.504774 -1.871091,-0.742187 z"
       id="path66" />
  </g>
</svg>
